<svg version="1.1" id="Layer_1" xmlns="http://www.w3.org/2000/svg" xmlns:xlink="http://www.w3.org/1999/xlink" x="0px" y="0px"
	 width="100%" viewBox="0 0 752 1024" enable-background="new 0 0 752 1024" xml:space="preserve">
<path fill="#000000" opacity="1.000000" stroke="none" 
	d="
M475.772125,759.713135 
	C484.783142,756.241272 491.965454,750.504028 499.491760,745.306824 
	C515.896790,733.978699 530.584778,720.809875 542.980225,705.150696 
	C543.472473,704.528748 543.850464,703.816406 544.530640,702.759216 
	C538.983032,698.718994 532.687256,697.107300 526.530945,695.500671 
	C512.229126,691.768311 497.464935,689.776794 483.644135,684.240417 
	C471.125275,679.225586 458.485718,674.556030 445.738861,670.153931 
	C442.118042,668.903503 439.238403,666.317932 436.962616,662.344604 
	C441.196808,663.035217 445.417419,663.826172 449.667480,664.399109 
	C468.492615,666.936768 486.687714,672.741394 505.511230,675.222412 
	C524.953369,677.785034 544.244812,678.233154 563.325500,672.017517 
	C569.176147,670.111572 571.550293,666.537964 573.116150,660.974792 
	C570.815552,660.696533 569.172119,661.902710 567.469421,662.610596 
	C542.177246,673.125122 516.499023,672.570984 490.687134,665.047058 
	C478.169861,661.398376 465.398956,659.104797 452.537323,657.466125 
	C442.326813,656.165283 432.378571,653.032471 421.911560,653.345947 
	C418.938751,653.434998 416.541351,650.816528 414.200256,648.998047 
	C410.211182,645.899231 405.957520,643.354187 401.199799,641.671448 
	C399.217651,640.970337 397.376984,640.364502 398.250580,637.521729 
	C398.987793,635.122864 399.187012,632.969910 402.715149,632.634583 
	C416.617004,631.313049 430.507812,629.793945 444.350800,627.956665 
	C459.089539,626.000427 473.100739,621.069519 487.258179,616.761108 
	C510.031250,609.830505 532.614075,602.324280 555.080444,594.469666 
	C562.060791,592.029297 568.837524,589.114929 571.767456,581.370667 
	C572.109924,580.465271 572.715881,579.512817 573.469421,578.932007 
	C582.293762,572.130249 583.017029,562.628906 581.551758,552.863892 
	C580.145386,543.490845 581.803406,533.974854 578.962036,524.631836 
	C573.613342,507.044342 567.570190,489.707184 557.620483,474.240936 
	C544.482361,453.818573 527.827087,436.460205 509.482849,420.436066 
	C494.087769,406.988068 476.247803,398.659241 457.718079,391.276764 
	C449.666199,388.068817 442.168823,383.751068 434.019165,380.704834 
	C418.343567,374.845490 402.051727,373.696655 385.630737,372.111359 
	C363.725342,369.996643 342.419098,373.252991 321.311676,377.772736 
	C308.861786,380.438629 296.775726,385.038330 284.553741,388.847534 
	C274.937561,391.844604 267.717529,397.883606 260.053955,403.757141 
	C244.687515,415.534149 230.638519,428.736023 217.163361,442.553986 
	C196.867188,463.366547 182.148804,487.734924 172.421860,515.074158 
	C167.671494,528.425842 164.317108,542.146912 163.056274,556.339294 
	C162.799942,559.224487 163.607056,560.582275 166.308456,561.442444 
	C173.036743,563.584717 177.434662,568.232544 180.633759,574.494751 
	C186.010147,585.019104 194.887238,592.093750 205.383514,596.898376 
	C224.926315,605.844238 245.568436,611.418884 266.529419,615.953491 
	C278.221130,618.482849 289.802307,621.519287 301.466339,624.182556 
	C305.187378,625.032166 308.995850,625.652771 312.797913,625.954773 
	C317.617645,626.337646 320.963379,628.201782 322.267639,633.137085 
	C323.200287,636.666260 324.881866,639.828491 326.919312,642.918884 
	C329.267670,646.480957 328.290771,647.745422 324.049255,648.342529 
	C317.624298,649.247192 311.684082,648.694519 305.243896,646.703857 
	C294.551331,643.398804 283.426178,646.285034 272.618347,648.018982 
	C251.238220,651.448914 229.809860,654.230530 208.171692,655.430542 
	C194.883194,656.167542 181.689926,658.762024 168.344223,658.168823 
	C161.871414,657.881165 155.491150,657.548706 149.098953,658.794556 
	C147.813889,659.045044 146.419540,659.056091 145.017990,657.306702 
	C148.732269,649.610657 143.859726,645.908813 137.736862,641.664490 
	C119.588737,629.084106 104.819893,613.229370 94.226707,593.651917 
	C91.321556,588.282837 92.000397,585.313721 97.821007,583.448059 
	C108.117012,580.147888 118.441399,576.900146 128.874588,574.076233 
	C136.187836,572.096802 141.801178,567.288330 148.112106,563.645752 
	C150.310455,562.376831 150.379959,559.695068 150.765152,557.422119 
	C152.598663,546.602295 153.448303,535.516113 156.835342,525.086304 
	C163.901337,503.327850 169.783936,480.900146 184.076141,462.339478 
	C193.620361,449.944855 203.727097,438.005890 215.081955,427.108398 
	C220.924850,421.500854 225.797318,414.843170 231.876877,409.380493 
	C233.891861,407.570007 233.980804,405.381348 233.361954,402.973419 
	C230.082703,390.213806 229.487778,376.986145 226.600662,364.153168 
	C225.733795,360.300018 226.995346,358.070465 231.043335,356.100494 
	C237.407074,353.003479 243.138077,348.574280 249.030167,344.552673 
	C252.354401,342.283783 255.838440,340.402802 259.519653,338.799286 
	C262.534882,337.485901 265.230560,336.160583 266.230377,332.202820 
	C267.162567,328.512543 271.657654,327.563721 274.299103,325.058136 
	C289.927734,310.233093 307.804352,298.770172 327.528107,290.245270 
	C366.285797,273.493713 406.013000,271.473572 446.662903,282.467224 
	C461.483398,286.475372 475.390533,292.035095 487.146667,302.164246 
	C489.287781,304.009064 491.333923,305.970123 493.349976,307.952698 
	C497.308075,311.845032 500.481842,316.270935 505.952606,318.857697 
	C511.344025,321.406952 514.710815,327.037140 517.502441,332.329346 
	C521.442688,339.798828 525.609314,347.282532 526.544189,355.936523 
	C526.763428,357.965912 528.478394,358.572479 529.799866,359.422821 
	C543.830872,368.451813 554.931091,380.673309 566.075195,392.811981 
	C570.959229,398.131866 570.149231,400.487579 563.589417,403.330566 
	C559.887817,404.934814 558.927917,408.606079 557.515320,412.357758 
	C567.212830,417.249878 577.025269,421.156403 587.288452,424.119141 
	C595.793579,426.574371 604.554504,427.607727 613.134644,429.587189 
	C616.865112,430.447784 620.476257,431.520752 620.570251,436.239838 
	C620.654358,440.462158 617.702087,442.057251 614.185425,443.464661 
	C605.233704,447.047333 595.870117,449.000458 586.260681,451.583435 
	C589.231140,452.932526 592.207581,454.268463 595.170654,455.633575 
	C600.850891,458.250397 601.191711,460.520660 596.479065,464.403168 
	C591.814880,468.245758 586.968384,471.590302 580.697510,472.468292 
	C576.662903,473.033203 575.722961,475.665070 577.159912,479.472229 
	C581.730164,491.581604 586.329834,503.683990 590.616699,515.894897 
	C594.493896,526.938599 596.177124,538.466614 597.291504,550.083435 
	C598.292847,560.520813 599.453186,570.949707 597.539001,581.408752 
	C597.171082,583.419067 598.631897,584.342957 599.915283,585.441772 
	C608.993164,593.213745 619.706360,597.572144 631.145569,600.348328 
	C640.864929,602.707092 643.163025,607.187988 638.540466,616.254944 
	C632.687439,627.735291 624.982788,637.620789 615.051575,646.183716 
	C601.588257,657.792175 588.632507,670.037048 576.953064,683.578857 
	C569.856750,691.806824 569.756165,701.406738 569.595276,711.218323 
	C569.584534,711.873535 569.862305,712.529419 569.892090,713.190063 
	C570.033142,716.323364 569.569153,719.745422 566.665833,721.036499 
	C563.794800,722.313293 561.490723,719.753418 559.521362,717.654968 
	C557.712585,715.727661 556.661987,713.138245 553.945740,711.387390 
	C550.762634,714.088074 547.094482,716.485413 544.326355,719.666016 
	C527.607178,738.876526 507.663055,754.329163 485.351746,765.957031 
	C466.268951,775.902344 446.408966,785.014709 425.039551,789.366150 
	C414.979340,791.414673 404.796539,794.022461 394.502533,793.815918 
	C377.275665,793.470337 360.018738,794.038269 342.846466,790.772766 
	C335.139465,789.307251 326.982147,789.814087 319.301575,787.385132 
	C294.246033,779.461731 269.310333,771.690735 246.809631,757.140869 
	C221.414413,740.719116 202.510468,718.671265 186.209946,693.851746 
	C184.986664,691.989136 183.931366,690.130127 181.258499,690.387085 
	C167.176132,691.740845 153.026367,690.130188 138.941483,691.333923 
	C136.296432,691.560059 133.664078,692.220642 131.028610,692.205566 
	C127.160858,692.183411 125.487099,689.752380 127.710800,686.697205 
	C132.741714,679.785278 137.755096,673.297363 147.475479,671.447937 
	C178.792847,665.489746 210.643295,664.689575 242.151138,660.701172 
	C258.325867,658.653748 274.556854,657.049744 290.765106,655.269897 
	C293.207764,655.001709 295.678284,654.353394 298.448730,655.502686 
	C297.290527,658.724304 293.932922,659.760315 292.172485,662.171082 
	C283.450958,674.114075 270.505981,678.165100 256.970032,681.053772 
	C239.063950,684.875000 220.948746,687.375671 202.759918,689.380310 
	C201.127045,689.560303 199.446533,689.660461 197.739975,691.138489 
	C202.383789,699.344055 208.459045,706.574768 214.304398,713.923218 
	C235.733978,740.863342 264.238708,757.418091 296.022369,769.047852 
	C301.805786,771.164001 307.695312,772.989746 313.482819,775.095276 
	C333.655121,782.434082 354.786499,782.532837 375.826782,784.017456 
	C392.866669,785.220032 409.342896,782.430969 425.851135,779.509033 
	C433.173492,778.212952 440.207428,775.310486 447.080200,772.311218 
	C456.537476,768.183960 465.965088,763.988770 475.772125,759.713135 
M552.777710,392.629730 
	C545.606934,387.132629 540.291382,379.697327 533.348389,373.972961 
	C515.120239,358.944244 493.471039,349.788361 472.236694,340.506470 
	C452.495239,331.877075 431.401154,326.889893 409.584808,324.825409 
	C384.241058,322.427155 358.935455,322.494507 333.956604,326.079590 
	C311.478119,329.305817 289.251129,334.872559 268.268219,344.282654 
	C258.218842,348.789459 248.474045,353.748749 239.751846,360.549469 
	C238.419357,361.588348 236.753632,362.567688 237.372208,364.519714 
	C238.541870,368.210938 238.912735,372.302979 241.936371,375.308899 
	C253.076996,368.455902 264.056274,361.734253 276.245697,357.632202 
	C293.452332,351.841675 311.085602,347.738647 329.090240,345.059723 
	C349.599213,342.008118 370.057098,340.904358 390.792969,342.481110 
	C405.644073,343.610352 420.144653,346.484314 434.605469,349.463531 
	C449.732574,352.579987 465.065430,355.538971 479.461700,361.174652 
	C493.062286,366.498901 506.548462,372.248413 519.701294,378.732910 
	C530.222107,383.919800 540.515320,389.186768 548.198364,398.403595 
	C549.317200,399.745758 550.461609,401.326538 552.637695,401.265930 
	C555.501526,398.725525 556.012573,396.063599 552.777710,392.629730 
M503.705444,335.828156 
	C495.106659,324.140289 486.067749,312.786652 473.903229,304.595123 
	C455.116608,291.944305 433.496582,287.004211 411.559540,285.710938 
	C383.510498,284.057343 355.748474,287.042603 329.744781,299.458313 
	C315.269043,306.369873 301.986237,314.858673 289.428467,326.586945 
	C365.052124,306.538757 437.671234,308.222198 507.117676,346.607788 
	C507.443817,342.181885 505.475952,339.420197 503.705444,335.828156 
M274.044952,373.542358 
	C267.438110,377.054871 260.742798,380.412354 254.246506,384.118652 
	C245.887558,388.887665 245.702316,389.739777 249.228271,399.069061 
	C250.698059,398.272522 252.165176,397.547394 253.564178,396.708649 
	C272.275635,385.490601 291.175781,375.036957 313.259735,371.426544 
	C327.938019,369.026825 342.147095,363.831207 357.181885,363.284454 
	C385.898590,362.240234 414.612762,362.169922 441.757385,373.410309 
	C454.495789,378.685211 467.294312,383.856720 479.913574,389.387360 
	C491.447968,394.442566 502.170593,400.834412 511.272858,410.207825 
	C518.102600,417.241119 526.315186,423.134369 534.095886,429.853851 
	C538.010437,425.831757 540.633911,421.404938 543.229370,417.017975 
	C544.477234,414.908752 544.105164,412.422333 542.431396,410.482941 
	C538.622437,406.069641 534.773438,401.499146 529.744873,398.579956 
	C518.243774,391.903320 506.483215,385.651825 494.197815,380.497986 
	C468.790802,369.839508 442.374481,362.432983 415.338501,357.513733 
	C387.692108,352.483459 359.998993,351.864075 331.986603,356.431152 
	C312.048248,359.681885 293.330231,365.990356 274.044952,373.542358 
M137.032028,628.433655 
	C140.512939,630.485413 142.991333,634.154358 147.625534,635.196899 
	C151.197754,615.100342 152.225067,595.304382 149.418243,573.951904 
	C136.126480,585.569458 119.586311,586.154114 104.732681,591.963379 
	C113.059006,606.475647 123.481125,618.360413 137.032028,628.433655 
M586.178711,636.397156 
	C585.474670,643.094055 582.399353,649.322937 581.826660,657.801453 
	C600.672852,643.092834 620.543457,631.603271 632.058777,610.031250 
	C619.985657,606.580872 609.243286,603.176697 599.884277,596.572083 
	C595.951416,593.796692 593.919617,594.329529 591.934875,598.755920 
	C591.261353,600.257874 590.699280,601.880798 590.476135,603.502197 
	C589.008118,614.167480 587.646729,624.847473 586.178711,636.397156 
z"/>
<path fill="#000000" opacity="1.000000" stroke="none" 
	d="
M386.746246,726.216675 
	C374.764740,711.637512 371.432800,694.810547 371.902527,676.870972 
	C371.976654,674.039368 372.948059,671.942627 376.125153,670.930725 
	C380.923828,669.402405 383.720367,665.252014 386.705597,661.275696 
	C391.001617,663.002319 392.685669,666.882751 394.457916,670.225403 
	C398.721893,678.267700 405.332642,684.554321 410.114899,692.176636 
	C410.990173,693.571716 412.230225,695.093140 414.181366,694.077820 
	C416.266235,692.992859 415.924896,691.002625 415.254547,689.236328 
	C410.826782,677.568970 405.165771,666.762817 394.454803,659.455872 
	C389.792206,656.275085 389.993896,655.705078 393.296783,649.152283 
	C395.499817,644.781555 398.343170,645.697571 401.554993,647.280945 
	C409.965240,651.426880 416.760437,658.016052 424.882568,662.639771 
	C445.665771,674.471130 452.735779,694.225586 455.263916,716.401550 
	C455.732574,720.512390 457.329376,724.026978 459.393982,727.355530 
	C442.803772,746.715027 408.548737,748.680237 386.746246,726.216675 
z"/>
<path fill="#000000" opacity="1.000000" stroke="none" 
	d="
M320.289429,677.396606 
	C319.607056,678.387268 318.891907,679.009705 318.707672,679.762085 
	C318.163971,681.982483 317.131042,684.723694 319.647156,686.084351 
	C322.315277,687.527283 323.261749,684.609680 324.508820,683.021240 
	C328.513550,677.920166 332.386017,672.714722 336.415649,667.633789 
	C339.540680,663.693542 341.244629,663.723694 344.585754,667.851196 
	C350.215149,674.805786 352.689117,682.723389 350.988495,691.626770 
	C349.162964,701.184265 345.707184,710.112061 340.367279,718.321960 
	C334.475708,727.379944 325.368622,730.381470 315.477295,732.214111 
	C306.270905,733.919922 297.345184,733.393921 288.504608,730.097168 
	C284.574158,728.631409 280.265106,729.522827 276.128723,729.347107 
	C268.731842,729.032837 266.640137,727.038940 267.932037,719.800842 
	C269.788361,709.400818 271.870697,699.318542 278.352844,690.083801 
	C284.304626,681.604614 288.901642,672.146545 296.516968,664.862305 
	C304.441742,657.282166 314.269226,653.942566 324.967468,653.099609 
	C329.172333,652.768311 332.619446,654.722778 335.154327,658.632446 
	C329.774780,664.570923 324.691040,670.486145 320.289429,677.396606 
z"/>
<path fill="#000000" opacity="1.000000" stroke="none" 
	d="
M300.523376,879.412354 
	C295.581665,867.001221 290.790436,854.945435 286.082733,843.099915 
	C286.082733,850.262390 286.085144,857.684753 286.081848,865.107056 
	C286.079620,870.104858 285.985046,875.104431 286.091980,880.099792 
	C286.163391,883.437683 284.805115,884.843201 281.394592,884.996338 
	C273.040222,885.371582 272.659119,885.132568 272.657471,876.817078 
	C272.653473,856.992371 272.618469,837.167480 272.695526,817.343079 
	C272.704865,814.941833 271.520569,811.824585 275.659607,811.073792 
	C282.346619,809.860840 286.373779,811.039001 288.019318,815.198975 
	C293.098785,828.040283 298.118896,840.905212 302.908752,853.115234 
	C302.908752,841.905212 302.883850,830.090454 302.918182,818.275818 
	C302.938538,811.267334 303.289307,810.961365 310.255707,810.992493 
	C316.565643,811.020691 316.964111,811.385315 316.963806,817.872559 
	C316.962891,837.530640 316.995209,857.189270 316.825226,876.846069 
	C316.800934,879.655701 318.498718,883.567810 313.895142,884.773376 
	C307.239197,886.516357 303.049988,884.880554 300.523376,879.412354 
z"/>
<path fill="#000000" opacity="1.000000" stroke="none" 
	d="
M343.625244,885.103760 
	C331.410797,881.672607 328.413116,872.089478 327.980499,861.755005 
	C327.332977,846.287598 327.796112,830.775085 327.693268,815.282349 
	C327.673340,812.279236 329.018005,811.232971 331.857666,810.992371 
	C342.690918,810.075012 343.215759,810.511963 343.213745,821.188538 
	C343.211243,834.516296 343.196777,847.844604 343.303284,861.171692 
	C343.357178,867.920410 345.588684,871.610474 349.338104,871.739319 
	C353.014771,871.865601 355.502716,868.161743 355.584656,861.344543 
	C355.760834,846.685791 355.883118,832.018738 355.556366,817.365601 
	C355.439819,812.139343 357.327545,810.435913 362.178253,810.974731 
	C363.825256,811.157715 365.507019,811.011841 367.172119,811.050842 
	C369.790405,811.112122 371.189178,812.403809 371.130157,815.092163 
	C370.779480,831.065735 372.215149,847.093933 370.397034,863.009338 
	C368.364288,880.803711 361.650940,886.180481 343.625244,885.103760 
z"/>
<path fill="#000000" opacity="1.000000" stroke="none" 
	d="
M339.525574,623.587524 
	C342.460876,623.910889 344.930023,623.505432 347.360016,622.913574 
	C356.316589,620.732117 364.942108,622.103394 373.151337,625.805664 
	C378.603699,628.264709 384.818665,628.570129 389.847107,632.223206 
	C392.075226,633.841858 393.394379,635.537048 391.975769,638.006042 
	C386.847382,646.931885 383.590210,656.875305 377.177765,665.105530 
	C376.088593,666.503479 375.105377,667.853271 373.137512,667.238159 
	C365.816223,664.949768 358.609802,666.922974 351.381317,667.783447 
	C350.042847,667.942810 348.773560,668.488647 347.739136,667.179626 
	C339.101044,656.248718 332.545074,644.182495 328.287018,630.919922 
	C327.144836,627.362427 330.867310,623.894531 336.136993,623.329468 
	C337.110107,623.225159 338.121033,623.473511 339.525574,623.587524 
z"/>
<path fill="#000000" opacity="1.000000" stroke="none" 
	d="
M423.675110,877.880493 
	C423.672943,857.245850 423.799377,837.095093 423.573700,816.948364 
	C423.521637,812.301636 425.073639,810.771301 429.582550,810.933289 
	C436.733826,811.190063 443.902466,810.914673 451.061035,811.031616 
	C456.220367,811.115784 456.247375,811.712708 456.401733,819.745239 
	C456.485809,824.119385 454.460968,824.869385 450.923828,824.438354 
	C450.595184,824.398376 450.258362,824.423828 449.925354,824.421021 
	C438.060486,824.320984 437.965668,824.484070 439.134552,836.260803 
	C439.377869,838.712280 440.295532,839.947144 442.782654,839.934814 
	C445.113586,839.923340 447.458008,840.122925 449.772949,839.936829 
	C454.152344,839.584717 455.577454,841.458618 455.427887,845.781494 
	C455.179535,852.958862 455.410004,852.986572 448.251648,853.019653 
	C437.986389,853.067078 439.137848,852.642761 439.132629,862.252380 
	C439.126648,873.236633 438.507080,871.550781 448.446655,871.640137 
	C457.841095,871.724609 458.333435,872.277649 457.361847,881.489075 
	C457.122101,883.762207 456.202545,884.877869 454.000061,884.883606 
	C445.175171,884.906433 436.350006,884.927368 427.525330,884.878479 
	C422.730469,884.851929 423.853485,881.193359 423.675110,877.880493 
z"/>
<path fill="#000000" opacity="1.000000" stroke="none" 
	d="
M370.247314,536.488098 
	C378.340332,539.652100 384.826447,544.451111 390.771149,550.183105 
	C396.753632,555.951477 403.829803,560.475220 409.612152,566.515381 
	C413.155273,570.216492 413.116577,573.046509 408.752350,575.707642 
	C406.503143,577.079041 404.011536,578.529785 401.483734,578.873779 
	C395.145813,579.736084 390.607788,583.605530 385.856934,587.202087 
	C380.811157,591.022034 375.639282,594.563477 369.455963,596.344849 
	C363.097168,598.176697 357.363678,596.570312 352.754639,592.289368 
	C345.456268,585.510620 337.514374,580.023987 327.937195,577.071899 
	C322.399994,575.365112 319.564758,571.394043 318.548706,565.871948 
	C318.008179,562.934387 318.779785,560.387939 321.414215,559.029480 
	C330.314789,554.439758 338.389587,548.565247 346.685852,543.043335 
	C350.734314,540.348755 355.070587,538.293640 359.414948,536.190063 
	C362.980957,534.463379 366.423920,534.265747 370.247314,536.488098 
M365.109406,543.706177 
	C364.304443,543.790710 363.387726,543.652832 362.711121,543.992737 
	C350.478210,550.139282 339.123291,557.664551 328.345245,566.078308 
	C328.000793,566.347229 327.880035,566.902649 327.504822,567.605957 
	C331.267822,570.614014 336.067139,571.146240 340.149597,573.214233 
	C346.744904,576.555237 352.391541,581.259949 358.214691,585.658752 
	C363.355286,589.541931 367.807190,588.650391 372.898651,585.732971 
	C381.765045,580.652649 388.297302,571.779846 399.767487,570.384705 
	C396.671570,565.914001 392.737244,563.903809 389.503693,561.147034 
	C382.058350,554.799438 375.313660,547.444519 365.109406,543.706177 
z"/>
<path fill="#000000" opacity="1.000000" stroke="none" 
	d="
M470.516663,885.052124 
	C462.532898,883.216370 460.243530,877.942261 464.064331,871.292542 
	C465.134552,869.430115 466.507324,870.040894 467.933716,870.526001 
	C471.132263,871.613647 474.419159,871.896484 477.780914,871.789490 
	C481.044434,871.685608 483.761566,870.558716 485.068970,867.476013 
	C486.486664,864.133301 485.885529,860.896484 483.336700,858.231812 
	C481.020050,855.809937 478.149445,854.091309 475.368774,852.247742 
	C465.375153,845.621704 461.479828,836.846619 463.749054,826.369324 
	C466.512573,813.609680 484.922150,805.761719 496.186279,812.478455 
	C497.721130,813.393616 498.407440,814.531311 498.003815,816.144897 
	C497.207306,819.328979 497.415833,822.788452 495.446838,825.849121 
	C492.154633,825.654114 489.139313,823.887146 485.728699,824.239868 
	C482.446320,824.579346 479.866516,825.822632 478.726776,828.970886 
	C477.587402,832.118286 478.555725,834.972839 481.131348,837.026550 
	C483.598053,838.993408 486.276978,840.698914 488.898438,842.466125 
	C499.287781,849.469971 503.262299,859.199646 500.066986,869.878662 
	C497.084778,879.845581 488.442535,885.386414 475.944611,885.317688 
	C474.281006,885.308533 472.617981,885.190491 470.516663,885.052124 
z"/>
<path fill="#000000" opacity="1.000000" stroke="none" 
	d="
M250.813416,821.968140 
	C253.857773,810.300293 255.066422,809.494385 266.636444,811.161804 
	C267.258759,811.251526 267.841522,811.615967 268.263458,811.782043 
	C269.321381,813.367554 268.410370,814.548767 267.973206,815.745850 
	C265.176605,823.404663 262.856476,831.288635 259.422119,838.651978 
	C253.450684,851.454651 252.541382,864.821594 253.137970,878.582764 
	C253.406525,884.777466 252.893219,884.962280 245.021408,884.954773 
	C238.182266,884.948242 237.313400,884.615906 237.900253,878.644165 
	C239.497070,862.395203 235.366074,847.368530 229.325348,832.591431 
	C227.061096,827.052490 225.383530,821.276184 223.236038,815.685974 
	C221.919937,812.259827 223.158966,811.249451 226.480911,811.026001 
	C237.622940,810.276184 237.639694,810.201294 240.799210,820.939270 
	C242.488052,826.678955 244.083817,832.445984 245.741653,838.194946 
	C245.825485,838.485657 246.099991,838.721375 246.508453,839.296143 
	C247.959076,833.491089 249.348129,827.932434 250.813416,821.968140 
z"/>
<path fill="#000000" opacity="1.000000" stroke="none" 
	d="
M386.231964,884.927246 
	C382.886719,884.936035 381.654083,883.590454 381.661926,880.619141 
	C381.719421,858.798462 381.702972,836.977478 381.649170,815.156738 
	C381.642700,812.525818 382.519135,811.034973 385.327789,811.038635 
	C393.655945,811.049500 401.984100,811.040222 410.312225,811.021240 
	C413.282990,811.014465 414.526245,812.493286 414.299469,815.405579 
	C414.209229,816.564209 414.175385,817.750732 414.317139,818.899780 
	C414.841339,823.149109 413.415771,824.767456 408.784363,824.571228 
	C394.607544,823.970703 397.362030,824.758240 397.137939,835.894775 
	C397.098755,837.842773 397.295471,839.795532 397.399689,842.112244 
	C401.640503,842.112244 405.427185,842.135803 409.213470,842.104675 
	C412.100555,842.080933 413.255463,843.353455 413.378632,846.341492 
	C413.738525,855.070984 413.828278,855.092896 404.789673,855.166260 
	C397.114746,855.228638 397.110779,855.228516 397.103241,862.793274 
	C397.098267,867.790405 397.125397,872.787659 397.104706,877.784729 
	C397.075836,884.750244 396.893494,884.914124 389.686401,884.946655 
	C388.686981,884.951172 387.687500,884.940918 386.231964,884.927246 
z"/>
<path fill="#000000" opacity="1.000000" stroke="none" 
	d="
M73.459824,562.537048 
	C69.672165,564.660828 66.303558,566.813782 62.707230,568.473206 
	C59.967812,569.737244 56.604576,570.567810 54.761974,567.224365 
	C52.821442,563.703308 55.565739,561.752747 58.264374,560.183411 
	C66.283905,555.519836 74.237511,550.698608 83.312439,548.264771 
	C85.384468,547.709045 87.502831,547.223450 89.630318,547.012390 
	C91.095802,546.866943 92.836731,547.194275 93.399567,548.786499 
	C93.959770,550.371155 92.920616,551.786682 91.614395,552.561218 
	C87.491585,555.005859 83.280518,557.303040 79.082878,559.619690 
	C77.342613,560.580139 75.549835,561.445435 73.459824,562.537048 
z"/>
<path fill="#000000" opacity="1.000000" stroke="none" 
	d="
M90.742523,422.910400 
	C93.020012,418.152496 94.761856,417.524506 98.264648,420.514282 
	C105.214409,426.446289 111.619736,432.999420 118.913292,438.555359 
	C120.482025,439.750305 121.466064,441.677795 121.792496,443.696167 
	C122.069313,445.407837 121.562851,447.020416 120.167221,448.183563 
	C118.825836,449.301514 117.287659,449.247589 116.016464,448.236206 
	C107.557182,441.505768 98.847008,435.037628 92.010872,426.523926 
	C91.322838,425.666992 91.152550,424.394379 90.742523,422.910400 
z"/>
<path fill="#000000" opacity="1.000000" stroke="none" 
	d="
M681.802368,464.679077 
	C683.590759,464.139496 685.008606,463.407898 686.445312,463.368744 
	C688.858276,463.302979 691.140625,463.991638 691.916565,466.717285 
	C692.618408,469.182617 691.403992,471.218079 689.403198,472.142639 
	C681.294556,475.889801 673.484863,480.359680 664.860596,482.896790 
	C662.874634,483.480988 660.187988,484.247650 658.929443,482.022247 
	C657.441345,479.390900 659.524780,477.293152 661.387451,475.646851 
	C666.575134,471.061798 673.113098,468.865784 679.193481,465.864929 
	C679.936829,465.498077 680.691101,465.153351 681.802368,464.679077 
z"/>
<path fill="#000000" opacity="1.000000" stroke="none" 
	d="
M647.472534,616.783813 
	C644.967102,615.260376 641.648376,614.426514 643.210205,610.870911 
	C644.509705,607.912659 647.222961,608.028259 650.060730,608.676147 
	C659.683716,610.872864 668.477722,615.004883 676.962280,619.897583 
	C677.996277,620.493896 678.769287,621.347229 679.045654,623.111633 
	C675.664612,626.111389 671.656677,624.714355 668.077820,623.690125 
	C661.246216,621.734863 654.574951,619.219177 647.472534,616.783813 
z"/>
<path fill="#000000" opacity="1.000000" stroke="none" 
	d="
M81.874718,461.880432 
	C88.532242,463.860107 93.965767,467.386536 99.384911,470.886475 
	C100.720901,471.749298 101.812340,473.175354 102.662209,474.559753 
	C103.731071,476.300873 104.240448,478.400085 102.787102,480.149933 
	C101.195580,482.066193 99.164810,481.302185 97.346489,480.353424 
	C90.446030,476.752808 84.011093,472.316467 76.890671,469.090332 
	C74.682961,468.090027 72.865211,466.059540 74.110481,463.482941 
	C75.679230,460.237030 78.685829,460.872162 81.874718,461.880432 
z"/>
<path fill="#000000" opacity="1.000000" stroke="none" 
	d="
M512.788147,884.829285 
	C509.925201,883.281433 508.492279,881.085876 507.877228,878.412598 
	C506.497070,872.414001 510.012512,866.598083 515.368347,865.838196 
	C520.479553,865.113098 524.923218,869.422913 525.150635,875.325745 
	C525.400024,881.800781 521.689148,885.504028 515.123474,885.302795 
	C514.468445,885.282776 513.818176,885.107727 512.788147,884.829285 
z"/>
<path fill="#000000" opacity="1.000000" stroke="none" 
	d="
M675.102173,536.357178 
	C671.908691,536.172485 667.885315,536.929443 667.321106,533.864075 
	C666.638916,530.158020 670.729492,528.990723 673.664368,528.169250 
	C679.705383,526.478333 685.835571,525.078125 691.976685,523.784546 
	C694.866333,523.175842 697.819580,523.372253 698.726440,527.029968 
	C699.584961,530.492676 696.940796,531.911743 694.489563,532.789673 
	C688.397400,534.971558 682.108521,536.420654 675.102173,536.357178 
z"/>
<path fill="#000000" opacity="1.000000" stroke="none" 
	d="
M673.412231,577.912903 
	C670.394775,577.303711 667.737366,576.959229 665.363708,575.634766 
	C662.340637,573.947998 661.030273,571.401733 662.246216,568.114319 
	C663.426575,564.923096 666.089111,563.487610 669.396606,564.030212 
	C672.475891,564.535339 675.430359,565.425293 678.635315,565.628174 
	C681.286621,565.796204 684.061768,567.555908 684.176208,571.066772 
	C684.288757,574.521545 682.486023,576.648682 679.268250,577.713501 
	C677.469482,578.308716 675.653687,578.128601 673.412231,577.912903 
z"/>
<path fill="#000000" opacity="1.000000" stroke="none" 
	d="
M61.238243,510.616180 
	C68.297134,511.626007 75.114311,512.016357 81.456894,514.738647 
	C82.521774,515.195679 83.639473,515.593384 84.594467,516.226990 
	C85.835022,517.049988 87.199318,518.068787 86.779297,519.791565 
	C86.376099,521.445374 84.824509,521.962708 83.300362,522.162415 
	C77.763000,522.887878 72.426651,521.346313 67.035202,520.557678 
	C64.438896,520.177917 61.883232,519.410889 59.365208,518.636902 
	C56.919556,517.885132 55.238964,516.291077 55.650562,513.505188 
	C56.103531,510.439331 58.312153,510.061096 61.238243,510.616180 
z"/>
<path fill="#000000" opacity="1.000000" stroke="none" 
	d="
M420.676025,534.776611 
	C421.450226,537.789124 421.992218,540.473511 419.441650,542.476013 
	C416.353363,544.900574 412.934937,544.699402 410.327271,542.196838 
	C407.358093,539.347351 409.275055,536.143372 411.415802,533.764282 
	C414.471588,530.368164 417.631683,531.565430 420.676025,534.776611 
z"/>
<path fill="#000000" opacity="1.000000" stroke="none" 
	d="
M320.008789,540.364746 
	C316.660583,541.926514 314.262939,541.021423 313.178864,538.077820 
	C312.069122,535.064514 313.496368,532.542236 316.064453,530.791199 
	C318.057739,529.432068 320.119476,529.306641 321.927551,531.185120 
	C324.183441,533.528687 323.682556,536.019836 322.107422,538.453491 
	C321.671234,539.127380 320.946655,539.614685 320.008789,540.364746 
z"/>
</svg>