<svg width="31" height="52" viewBox="0 0 31 52" fill="none" xmlns="http://www.w3.org/2000/svg">
<path d="M2.94194 35.952C2.26994 35.952 1.75794 35.784 1.40594 35.448C1.06994 35.112 0.901938 34.68 0.901938 34.152C0.901938 33.656 1.03794 33.208 1.30994 32.808C1.58194 32.392 1.93394 32.064 2.36594 31.824C2.81394 31.568 3.26994 31.44 3.73394 31.44C3.92594 31.44 4.11794 31.464 4.30994 31.512C4.50194 31.544 4.68594 31.608 4.86194 31.704V20.52H6.70994V31.824C6.70994 32.688 6.52594 33.432 6.15794 34.056C5.80594 34.664 5.34194 35.136 4.76594 35.472C4.18994 35.792 3.58194 35.952 2.94194 35.952ZM7.81394 32.352C8.06994 31.792 8.25394 31.248 8.36594 30.72C8.49394 30.192 8.55794 29.664 8.55794 29.136C8.55794 28.48 8.46194 27.92 8.26994 27.456C8.09394 26.992 7.84594 26.624 7.52594 26.352C7.20594 26.08 6.84594 25.896 6.44594 25.8V21.336C6.62194 21.784 6.84594 22.192 7.11794 22.56C7.38994 22.912 7.68594 23.248 8.00594 23.568C8.35794 23.952 8.69394 24.36 9.01394 24.792C9.33394 25.224 9.59794 25.728 9.80594 26.304C10.0139 26.88 10.1179 27.576 10.1179 28.392C10.1179 29.144 10.0139 29.848 9.80594 30.504C9.59794 31.16 9.29394 31.776 8.89394 32.352H7.81394Z" fill="url(#paint0_linear_234_898)"/>
<path d="M13.9419 42.952C13.2699 42.952 12.7579 42.784 12.4059 42.448C12.0699 42.112 11.9019 41.68 11.9019 41.152C11.9019 40.656 12.0379 40.208 12.3099 39.808C12.5819 39.392 12.9339 39.064 13.3659 38.824C13.8139 38.568 14.2699 38.44 14.7339 38.44C14.9259 38.44 15.1179 38.464 15.3099 38.512C15.5019 38.544 15.6859 38.608 15.8619 38.704V27.52H17.7099V38.824C17.7099 39.688 17.5259 40.432 17.1579 41.056C16.8059 41.664 16.3419 42.136 15.7659 42.472C15.1899 42.792 14.5819 42.952 13.9419 42.952ZM18.8139 39.352C19.0699 38.792 19.2539 38.248 19.3659 37.72C19.4939 37.192 19.5579 36.664 19.5579 36.136C19.5579 35.48 19.4619 34.92 19.2699 34.456C19.0939 33.992 18.8459 33.624 18.5259 33.352C18.2059 33.08 17.8459 32.896 17.4459 32.8V28.336C17.6219 28.784 17.8459 29.192 18.1179 29.56C18.3899 29.912 18.6859 30.248 19.0059 30.568C19.3579 30.952 19.6939 31.36 20.0139 31.792C20.3339 32.224 20.5979 32.728 20.8059 33.304C21.0139 33.88 21.1179 34.576 21.1179 35.392C21.1179 36.144 21.0139 36.848 20.8059 37.504C20.5979 38.16 20.2939 38.776 19.8939 39.352H18.8139Z" fill="url(#paint1_linear_234_898)"/>
<path d="M22.9419 26.952C22.2699 26.952 21.7579 26.784 21.4059 26.448C21.0699 26.112 20.9019 25.68 20.9019 25.152C20.9019 24.656 21.0379 24.208 21.3099 23.808C21.5819 23.392 21.9339 23.064 22.3659 22.824C22.8139 22.568 23.2699 22.44 23.7339 22.44C23.9259 22.44 24.1179 22.464 24.3099 22.512C24.5019 22.544 24.6859 22.608 24.8619 22.704V11.52H26.7099V22.824C26.7099 23.688 26.5259 24.432 26.1579 25.056C25.8059 25.664 25.3419 26.136 24.7659 26.472C24.1899 26.792 23.5819 26.952 22.9419 26.952ZM27.8139 23.352C28.0699 22.792 28.2539 22.248 28.3659 21.72C28.4939 21.192 28.5579 20.664 28.5579 20.136C28.5579 19.48 28.4619 18.92 28.2699 18.456C28.0939 17.992 27.8459 17.624 27.5259 17.352C27.2059 17.08 26.8459 16.896 26.4459 16.8V12.336C26.6219 12.784 26.8459 13.192 27.1179 13.56C27.3899 13.912 27.6859 14.248 28.0059 14.568C28.3579 14.952 28.6939 15.36 29.0139 15.792C29.3339 16.224 29.5979 16.728 29.8059 17.304C30.0139 17.88 30.1179 18.576 30.1179 19.392C30.1179 20.144 30.0139 20.848 29.8059 21.504C29.5979 22.16 29.2939 22.776 28.8939 23.352H27.8139Z" fill="url(#paint2_linear_234_898)"/>
<defs>
<linearGradient id="paint0_linear_234_898" x1="5.5" y1="9" x2="5.5" y2="45" gradientUnits="userSpaceOnUse">
<stop stop-color="#ECB2C6"/>
<stop offset="1" stop-color="#ECB2C6" stop-opacity="0"/>
</linearGradient>
<linearGradient id="paint1_linear_234_898" x1="16.5" y1="16" x2="16.5" y2="52" gradientUnits="userSpaceOnUse">
<stop stop-color="#8DC0F5"/>
<stop offset="0.0001" stop-color="#D9B5D0" stop-opacity="0.204932"/>
<stop offset="1" stop-color="#8DC0F5"/>
</linearGradient>
<linearGradient id="paint2_linear_234_898" x1="25.5" y1="0" x2="25.5" y2="36" gradientUnits="userSpaceOnUse">
<stop stop-color="#BBAAE1"/>
<stop offset="0.0001" stop-color="#D9B5D0" stop-opacity="0.204932"/>
<stop offset="1" stop-color="#BBAAE1"/>
</linearGradient>
</defs>
</svg>
